<svg id="Layer_1" data-name="Layer 1" xmlns="http://www.w3.org/2000/svg" viewBox="0 0 141.73 141.73"><defs><style>.cls-1{fill:#c7feff;}</style></defs><title>bg</title><polygon class="cls-1" points="0 0 35.43 0 0 35.43 0 0"/><polygon class="cls-1" points="141.73 141.73 106.3 141.73 141.73 106.3 141.73 141.73"/><g id="MiddleLine_Path" data-name="MiddleLine Path"><path class="cls-1" d="M0,106.3,106.3,0h35.43V35.43L35.43,141.73H0Zm30.57,25.47L18.46,128a7.14,7.14,0,0,1-3-1.87,6.6,6.6,0,0,1-1.75-2.77L10,110.87a2.45,2.45,0,0,1,.42-2.61l7.45-7.45a2.61,2.61,0,0,0,.79-2,2.78,2.78,0,0,0-.84-2,2.69,2.69,0,0,0-1.95-.8,2.64,2.64,0,0,0-2,.8l-7.73,7.73a6.77,6.77,0,0,0-1.74,3.58,8.55,8.55,0,0,0,.11,4.16l4.08,13.21a11.2,11.2,0,0,0,2.94,4.66,12.46,12.46,0,0,0,4.77,3l13.25,4.22a7.53,7.53,0,0,0,4.05-.09,8,8,0,0,0,3.77-2l7.31-7.31a2.77,2.77,0,0,0,.84-2,2.7,2.7,0,0,0-2.77-2.77,2.78,2.78,0,0,0-2,.84l-7.06,7.06A2.78,2.78,0,0,1,30.57,131.77Zm25-38.51,4.82,4.82a2.74,2.74,0,0,0,2,.83,2.63,2.63,0,0,0,2-.78,2.87,2.87,0,0,0,0-4L59.57,89.3l2-2a2.58,2.58,0,0,0,.82-2,2.76,2.76,0,0,0-.81-1.91,2.64,2.64,0,0,0-2-.78,2.68,2.68,0,0,0-1.94.78l-2,2-4.43-4.43,2-2A2.73,2.73,0,0,0,54,77.05a2.73,2.73,0,0,0-2.76-2.85,2.69,2.69,0,0,0-1.95.8l-2,2-4.82-4.82a2.64,2.64,0,0,0-2-.78,2.75,2.75,0,0,0-2,.83,2.69,2.69,0,0,0-.8,1.94,2.64,2.64,0,0,0,.8,2L43.31,81,39.4,84.88l-4.82-4.82A2.77,2.77,0,1,0,30.66,84l4.82,4.82-2,2a2.69,2.69,0,0,0-.83,1.94,2.77,2.77,0,0,0,4.74,2l2-2,4.47,4.47-2,2a2.64,2.64,0,0,0-.8,2,2.76,2.76,0,0,0,4.72,1.95l2-2,4.82,4.82a2.77,2.77,0,0,0,2,.84A2.71,2.71,0,0,0,57.36,104a2.77,2.77,0,0,0-.84-2L51.7,97.18Zm-8.34-8.34,4.43,4.43-3.91,3.91-4.43-4.43Zm54.16-24L89.32,57.08a7.14,7.14,0,0,1-3-1.87,6.61,6.61,0,0,1-1.75-2.77L80.83,40a2.45,2.45,0,0,1,.42-2.61l7.45-7.45a2.61,2.61,0,0,0,.79-2,2.78,2.78,0,0,0-.84-2,2.69,2.69,0,0,0-1.95-.8,2.64,2.64,0,0,0-2,.8L77,33.72a6.77,6.77,0,0,0-1.74,3.58,8.54,8.54,0,0,0,.11,4.16l4.08,13.21a11.21,11.21,0,0,0,2.94,4.66,12.46,12.46,0,0,0,4.77,3l13.25,4.22a7.53,7.53,0,0,0,4.05-.09,8,8,0,0,0,3.77-2l7.31-7.31a2.77,2.77,0,0,0,.84-2,2.7,2.7,0,0,0-2.77-2.77,2.78,2.78,0,0,0-2,.84l-7.06,7.06A2.78,2.78,0,0,1,101.43,60.91Zm25-38.51,4.82,4.82a2.74,2.74,0,0,0,2,.83,2.63,2.63,0,0,0,2-.78,2.87,2.87,0,0,0,0-4l-4.82-4.82,2-2a2.58,2.58,0,0,0,.82-2,2.76,2.76,0,0,0-.81-1.91,2.64,2.64,0,0,0-2-.78,2.68,2.68,0,0,0-1.94.78l-2,2-4.43-4.43,2-2a2.73,2.73,0,0,0,.75-1.91,2.73,2.73,0,0,0-2.76-2.85,2.69,2.69,0,0,0-1.95.8l-2,2-4.82-4.82a2.64,2.64,0,0,0-2-.78,2.75,2.75,0,0,0-2,.83,2.69,2.69,0,0,0-.8,1.94,2.65,2.65,0,0,0,.8,2l4.82,4.82L110.27,14l-4.82-4.82a2.77,2.77,0,0,0-4.73,2,2.67,2.67,0,0,0,.82,2l4.82,4.82-2,2a2.7,2.7,0,0,0-.83,1.94,2.78,2.78,0,0,0,4.74,2l2-2,4.47,4.47-2,2a2.64,2.64,0,0,0-.8,2,2.76,2.76,0,0,0,4.72,1.94l2-2L123.47,35a2.77,2.77,0,0,0,2,.84,2.71,2.71,0,0,0,2.77-2.77,2.77,2.77,0,0,0-.84-2l-4.82-4.82Zm-8.34-8.34,4.43,4.43-3.91,3.91L114.22,18Z"/></g><g id="C_Paths" data-name="C# Paths"><path class="cls-1" d="M37.16,10.64,30.09,17.7a2.78,2.78,0,0,1-2,.84,2.7,2.7,0,0,1-2.77-2.77,2.77,2.77,0,0,1,.84-2l7.31-7.31a8,8,0,0,1,3.77-2,7.53,7.53,0,0,1,4.05-.09L54.57,8.6a12.46,12.46,0,0,1,4.77,3,11.2,11.2,0,0,1,2.94,4.66l4.08,13.21a8.55,8.55,0,0,1,.11,4.16,6.77,6.77,0,0,1-1.74,3.58L57,44.89a2.64,2.64,0,0,1-2,.8,2.69,2.69,0,0,1-1.95-.8,2.78,2.78,0,0,1-.84-2,2.61,2.61,0,0,1,.79-2l7.45-7.45a2.45,2.45,0,0,0,.42-2.61L57.14,18.42a6.6,6.6,0,0,0-1.75-2.77,7.14,7.14,0,0,0-3-1.87L40.3,10A2.78,2.78,0,0,0,37.16,10.64Z"/><path class="cls-1" d="M19.17,44.56l-4.82-4.82a2.77,2.77,0,0,1-.84-2A2.71,2.71,0,0,1,16.28,35a2.77,2.77,0,0,1,2,.84l4.82,4.82,2-2A2.77,2.77,0,0,1,29,42.56l-2,2L31.51,49l2-2a2.78,2.78,0,0,1,4.74,2,2.69,2.69,0,0,1-.83,1.94l-2,2,4.82,4.82a2.77,2.77,0,0,1-3.91,3.91l-4.82-4.82-3.91,3.91,4.82,4.82a2.65,2.65,0,0,1,.8,2,2.69,2.69,0,0,1-.8,1.94,2.75,2.75,0,0,1-2,.83,2.64,2.64,0,0,1-2-.78l-4.82-4.82-2,2a2.69,2.69,0,0,1-1.95.8,2.73,2.73,0,0,1-2.76-2.85,2.73,2.73,0,0,1,.75-1.91l2-2-4.43-4.43-2,2a2.68,2.68,0,0,1-1.94.78,2.64,2.64,0,0,1-2-.78,2.76,2.76,0,0,1-.81-1.91,2.58,2.58,0,0,1,.82-2l2-2L6.47,47.61a2.87,2.87,0,0,1,0-4,2.63,2.63,0,0,1,2-.78,2.74,2.74,0,0,1,2,.83l4.82,4.82Zm8.34,8.34-4.43-4.43-3.91,3.91,4.43,4.43Z"/><path class="cls-1" d="M108,81.5,101,88.57a2.78,2.78,0,0,1-2,.84,2.7,2.7,0,0,1-2.77-2.77,2.77,2.77,0,0,1,.84-2l7.31-7.31a8,8,0,0,1,3.77-2,7.53,7.53,0,0,1,4.05-.09l13.25,4.22a12.45,12.45,0,0,1,4.77,3,11.2,11.2,0,0,1,2.93,4.66l4.08,13.21a8.55,8.55,0,0,1,.11,4.16,6.77,6.77,0,0,1-1.74,3.58l-7.73,7.73a2.64,2.64,0,0,1-2,.8,2.69,2.69,0,0,1-1.95-.8,2.78,2.78,0,0,1-.84-2,2.61,2.61,0,0,1,.79-2l7.45-7.45a2.45,2.45,0,0,0,.42-2.61L128,89.29a6.62,6.62,0,0,0-1.75-2.77,7.14,7.14,0,0,0-3-1.87l-12.11-3.82A2.78,2.78,0,0,0,108,81.5Z"/><path class="cls-1" d="M90,115.42l-4.82-4.82a2.77,2.77,0,0,1-.84-2,2.71,2.71,0,0,1,2.77-2.77,2.77,2.77,0,0,1,2,.84l4.82,4.82,2-2a2.77,2.77,0,0,1,3.91,3.91l-2,2,4.47,4.47,2-2a2.78,2.78,0,0,1,4.74,2,2.69,2.69,0,0,1-.83,1.94l-2,2,4.82,4.82a2.77,2.77,0,0,1-3.91,3.91l-4.82-4.82-3.91,3.91,4.82,4.82a2.64,2.64,0,0,1,.8,2,2.69,2.69,0,0,1-.8,1.94,2.76,2.76,0,0,1-2,.83,2.64,2.64,0,0,1-2-.78l-4.82-4.82-2,2a2.69,2.69,0,0,1-1.95.8,2.73,2.73,0,0,1-2.76-2.85,2.73,2.73,0,0,1,.75-1.91l2-2L86,127.26l-2,2a2.67,2.67,0,0,1-1.94.78,2.63,2.63,0,0,1-2-.78,2.76,2.76,0,0,1-.81-1.91,2.58,2.58,0,0,1,.82-2l2-2-4.82-4.82a2.87,2.87,0,0,1,0-4,2.63,2.63,0,0,1,2-.78,2.74,2.74,0,0,1,2,.83l4.82,4.82Zm8.34,8.34-4.43-4.43L90,123.25l4.43,4.43Z"/></g></svg>